<svg xmlns="http://www.w3.org/2000/svg"
     xmlns:xlink="http://www.w3.org/1999/xlink"
     version="1.1"
     id="Layer_1"
     x="0px"
     y="0px"
     viewBox="0 0 8160 2024" xml:space="preserve">
    <style type="text/css">
        .st0{fill:#f97316;}
        .st1{fill:#1e293b;}
        .st3{fill:#FFFFFF;}
    </style>

    <rect x="5136" fill="#f49900" width="1024" height="1000"/>
    <rect x="5136" fill="#f17d00" width="1024" height="800"/>
    <rect x="5136" fill="#ee6100" width="1024" height="600"/>
    <rect x="5136" fill="#ea3b01" width="1024" height="400"/>
    <rect x="5136" fill="#e10c02" width="1024" height="200"/>


    <rect x="5301" y="189.5" class="st3" width="80.5" height="645"/>
    <rect x="5400.5" y="189.5" class="st3" width="80.5" height="645"/>

    <g>
        <polyline class="st3" points="5994,259.5 5994,189.5 5565,189.5 5565,834.5 5645.5,834.5 5645.5,259.5 "/>
        <polygon class="st3" points="5663.5,529.1 5663.5,834.5 5743.1,834.5 5743.1,590.6 5973,590.6 5973,529.1 "/>
        <polygon class="st3" points="5994,340.3 5994,276.6 5663.5,276.6 5663.5,512 5973,512 5973,448 5743.1,448 5743.1,340.3 "/>
    </g>
</svg>