<svg xmlns="http://www.w3.org/2000/svg" xmlns:xlink="http://www.w3.org/1999/xlink" version="1.1" id="Layer_1" x="0px" y="0px" viewBox="0 0 6160 1024" style="enable-background:new 0 0 6160 1024;" xml:space="preserve"><script xmlns="" async="false" type="text/javascript" src="chrome-extension://fnjhmkhhmkbjkkabndcnnogagogbneec/in-page.js"/>
    <style type="text/css">
	.st0{fill:#f97316;}
	.st1{fill:#1e293b;}
	.st2{fill:#3EA8DF;}
    .st3{fill:#FFFFFF;}
</style>
    <rect x="5136" fill="#f49900" width="1024" height="1000"/>
    <rect x="5136" fill="#f17d00" width="1024" height="800"/>
    <rect x="5136" fill="#ee6100" width="1024" height="600"/>
    <rect x="5136" fill="#ea3b01" width="1024" height="400"/>
    <rect x="5136" fill="#e10c02" width="1024" height="200"/>
    <rect x="5301" y="189.5" class="st3" width="80.5" height="645"/>
    <rect x="5400.5" y="189.5" class="st3" width="80.5" height="645"/>
    <polyline class="st3" points="5994,259.5 5994,189.5 5565,189.5 5565,834.5 5645.5,834.5 5645.5,259.5 "/>
    <polygon class="st3" points="5663.5,529.1 5663.5,834.5 5743.1,834.5 5743.1,590.6 5973,590.6 5973,529.1 "/>
    <polygon class="st3" points="5994,340.3 5994,276.6 5663.5,276.6 5663.5,512 5973,512 5973,448 5743.1,448 5743.1,340.3 "/>
    <path class="st1" d="M11.7,324.1V189.6h507v134.5H337.5v510.7h-148V324.1H11.7z"/>
    <path class="st1" d="M583,834.6v-645h148v246.6h231.4V189.6h148v645h-148V570.5H731v264.1H583z"/>
    <path class="st1" d="M1195.4,834.6v-645h408.7V322h-260.4v116.9H1584v128.8h-240.3V702h277.7v132.6H1195.4z"/>
    <path class="st1" d="M1790.3,189.6l162.2-0.1c63.3,240.9,99.3,385.5,107.8,433.9c7.6-30.8,20.1-73.1,36.8-127  c16.7-54.2,49.3-156.5,97.4-306.9H2313c68.5,212.3,113.3,356.5,134.3,433c19.2-88.9,56-233.2,110.8-433h148l-184.8,645h-134  c-83.1-272.6-128.2-422.2-135.2-448.7c-23.1,82.5-70,232.5-141,448.7H1975L1790.3,189.6z"/>
    <path class="st1" d="M2697,511.4c0-65.8,13.4-124.2,40.2-175.1s64-89.8,112.1-117.5s102.9-41.4,164.4-41.4  c62.1,0,116.3,14,163.2,41.7c46.9,28,82.5,66.4,106.9,115.7c24.7,49,36.8,105.7,36.8,169.3c0,52.1-7.6,99.6-23.1,142.2  s-37.2,78.6-65.2,107.5s-61.5,51.5-100.5,67.3s-81.9,23.8-128.5,23.8c-91.4,0-165.1-30.5-221.4-91.7  C2725.3,692.9,2697,612.2,2697,511.4z M2845,510.8c0,66.1,14.9,116.9,44.8,152.6c29.8,35.6,69.7,53.3,119.4,53.3  c49.9,0,89.8-17.4,119.1-52.4c29.2-35,43.9-85.3,43.9-151c0-67.9-14.3-119.4-43.2-154.4s-67.6-52.4-116.6-52.4  c-50.2,0-90.7,17.4-121.5,52.1C2860.5,393.6,2845,443.8,2845,510.8z"/>
    <path class="st1" d="M3395,834.6v-645h181.2c64.6,0,114.2,4.2,149.2,12.7c45.1,11.6,78.6,31.1,100.8,58.2s33.2,64.6,33.2,111.8  c0,77.3-36.8,134-110.8,169.3c25.9,12.2,49.3,35.9,71,71.6c21.6,35.6,59.1,109.4,112.1,221.5h-164.4c-38.1-82.8-65.5-139.6-82.2-170  c-16.7-30.5-32.6-51.2-47.5-62.1c-11.6-7.9-28.9-11.9-51.8-11.9H3543v244L3395,834.6L3395,834.6z M3543,469.1h59.4  c24.4,0,45.1-2.7,62.4-8.5c16.4-6.1,28-14.9,35.3-26.8s11-27.1,11-46c0-19.2-4.9-35-14.6-47.5c-9.7-12.2-26.2-20.7-49.3-24.7  c-18.6-3.3-41.7-4.9-69.4-4.9H3543V469.1L3543,469.1z"/>
    <path class="st1" d="M3988.5,834.6v-645h148v510.6h275.3v134.4H3988.5z"/>
    <path class="st1" d="M4492.1,834.6v-645h164.8c100.2,0,173,9.1,219,27.6c57.9,23.5,101.7,58.8,131,106  c29.5,47.2,44.2,107.8,44.2,181.8c0,74.3-15.8,137.1-47.8,187.6c-31.7,50.9-79.8,88.3-144.1,112.4c-53,19.5-125.5,29.5-217.2,29.5  L4492.1,834.6L4492.1,834.6z M4640.5,702h42c64,0,109-7,134.9-21c57.3-29.8,85.9-87.4,85.9-172.7c0-78.6-28.3-134-85-165.7  c-24.4-14-67-21-127.3-21h-50.6V702H4640.5z"/>

</svg>