<svg width="563" height="349" viewBox="0 0 563 349" fill="none" xmlns="http://www.w3.org/2000/svg">
<rect width="88.8889" height="88.8889" rx="44.4445" transform="matrix(1 0 0 -1 227.52 192.25)" fill="white" stroke="#4F4F4F" stroke-width="1.38889"/>
<rect x="234.928" y="147.806" width="51.8519" height="51.8519" rx="7.40741" transform="rotate(-45 234.928 147.806)" fill="#F46F22"/>
<path d="M251.913 144.028V146.621H255.394V148.265H251.913V151.006H255.839V152.695H249.839V142.339H255.839V144.028H251.913ZM267.012 142.354L263.22 152.695H260.701L256.909 142.354H259.131L261.975 150.576L264.805 142.354H267.012ZM270.33 144.028V146.621H273.811V148.265H270.33V151.006H274.256V152.695H268.256V142.339H274.256V144.028H270.33ZM284.985 152.695H282.911L278.215 145.599V152.695H276.141V142.339H278.215L282.911 149.45V142.339H284.985V152.695ZM294.072 142.354V144.028H291.316V152.695H289.242V144.028H286.487V142.354H294.072Z" fill="white"/>
<path d="M253.863 100.932C254.246 100.942 254.565 100.64 254.576 100.256L254.746 94.0088C254.757 93.6254 254.454 93.3062 254.071 93.2957C253.688 93.2852 253.368 93.5875 253.358 93.9709L253.206 99.5244L247.653 99.3729C247.27 99.3624 246.95 99.6647 246.94 100.048C246.929 100.432 247.232 100.751 247.615 100.761L253.863 100.932ZM254.386 99.7601L166.903 7.3683L165.894 8.32323L253.377 100.715L254.386 99.7601Z" fill="#4F4F4F"/>
<path d="M269.988 330.994C269.716 331.263 269.276 331.261 269.006 330.988L264.611 326.545C264.341 326.273 264.343 325.833 264.616 325.563C264.889 325.293 265.328 325.296 265.598 325.569L269.505 329.518L273.455 325.611C273.727 325.341 274.167 325.343 274.437 325.616C274.707 325.889 274.704 326.328 274.432 326.598L269.988 330.994ZM268.806 330.496L269.474 206.526L270.862 206.533L270.194 330.504L268.806 330.496Z" fill="#4F4F4F"/>
<path d="M0.894306 330.686C0.515253 330.628 0.255282 330.273 0.313646 329.894L1.26486 323.717C1.32322 323.338 1.67784 323.078 2.0569 323.136C2.43596 323.195 2.69593 323.549 2.63757 323.928L1.79204 329.419L7.28288 330.265C7.66195 330.323 7.92192 330.678 7.86354 331.057C7.80517 331.436 7.45056 331.696 7.0715 331.638L0.894306 330.686ZM0.589401 329.44L207.595 177.68L208.416 178.8L1.41059 330.56L0.589401 329.44Z" fill="#4F4F4F"/>
<path d="M540.186 331.392C540.246 331.771 539.987 332.126 539.608 332.186L533.434 333.159C533.055 333.218 532.7 332.96 532.64 332.581C532.58 332.202 532.839 331.846 533.218 331.787L538.706 330.922L537.841 325.434C537.782 325.055 538.04 324.7 538.419 324.64C538.798 324.58 539.154 324.839 539.213 325.218L540.186 331.392ZM539.091 332.061L330.929 180.561L331.747 179.439L539.909 330.939L539.091 332.061Z" fill="#4F4F4F"/>
<path d="M291.313 99.1005C291.368 99.48 291.721 99.7427 292.1 99.6872L298.285 98.7831C298.664 98.7276 298.927 98.375 298.871 97.9955C298.816 97.616 298.463 97.3533 298.084 97.4088L292.587 98.2125L291.783 92.7153C291.728 92.3358 291.375 92.0732 290.995 92.1287C290.616 92.1841 290.353 92.5368 290.409 92.9163L291.313 99.1005ZM292.557 99.4149L365.557 1.41491L364.443 0.585215L291.443 98.5852L292.557 99.4149Z" fill="#4F4F4F"/>
</svg>
