<svg width="251" height="40" viewBox="0 0 251 40" fill="none" xmlns="http://www.w3.org/2000/svg">
    <g clip-path="url(#clip0_1_2328)">
        <rect width="251" height="40" rx="4" fill="#334155"/>
        <rect x="0.5" y="0.5" width="250" height="39" fill="#334155"/>
        <path d="M250.983 0H211.093V38.9557H250.983V0Z" fill="#F49900"/>
        <path d="M250.983 0H211.093V31.1646H250.983V0Z" fill="#F17D00"/>
        <path d="M250.983 0H211.093V23.3734H250.983V0Z" fill="#EE6100"/>
        <path d="M250.983 0H211.093V15.5823H250.983V0Z" fill="#EA3B01"/>
        <path d="M250.983 0H211.093V7.79114H250.983V0Z" fill="#E10C02"/>
        <path d="M220.656 7.38184H217.521V32.5083H220.656V7.38184Z" fill="white"/>
        <path d="M224.532 7.38184H221.396V32.5083H224.532V7.38184Z" fill="white"/>
        <path d="M244.517 10.1087V7.38184H227.805V32.5083H230.941V10.1087" fill="white"/>
        <path d="M231.643 20.6113V32.5084H234.743V23.0071H243.699V20.6113H231.643Z" fill="white"/>
        <path d="M244.517 13.2569V10.7754H231.643V19.9456H243.699V17.4524H234.743V13.2569H244.517Z" fill="white"/>
        <path d="M11.4727 12.6253V7.38574H31.2232V12.6253H24.1644V32.52H18.399V12.6253H11.4727Z" fill="#FDFDFD"/>
        <path d="M33.7275 32.5122V7.38574H39.493V16.9922H48.5073V7.38574H54.2728V32.5122H48.5073V22.224H39.493V32.5122H33.7275Z" fill="#FDFDFD"/>
        <path d="M57.584 32.5122V7.38574H73.5052V12.5435H63.3611V17.0974H72.7222V22.1149H63.3611V27.3466H74.1791V32.5122H57.584Z" fill="#FDFDFD"/>
        <path d="M80.7588 7.38573L87.0774 7.38184C89.5433 16.7663 90.9457 22.3993 91.2768 24.2847C91.5729 23.0849 92.0598 21.437 92.7104 19.3373C93.361 17.2259 94.6309 13.2408 96.5047 7.38184H101.121C103.789 15.6521 105.535 21.2695 106.353 24.2496C107.101 20.7865 108.534 15.1652 110.669 7.38184H116.434L109.235 32.5083H104.015C100.778 21.8889 99.0212 16.0612 98.7485 15.0288C97.8487 18.2427 96.0216 24.086 93.2558 32.5083H87.9539L80.7588 7.38573Z" fill="#FDFDFD"/>
        <path d="M116.08 19.9223C116.08 17.359 116.602 15.084 117.646 13.1012C118.69 11.1183 120.139 9.60297 122.013 8.5239C123.887 7.44483 126.022 6.91113 128.417 6.91113C130.836 6.91113 132.948 7.45651 134.775 8.53559C136.602 9.62634 137.989 11.1222 138.939 13.0428C139.901 14.9516 140.373 17.1604 140.373 19.638C140.373 21.6675 140.077 23.5179 139.473 25.1775C138.869 26.837 138.024 28.2394 136.933 29.3652C135.842 30.491 134.537 31.3714 133.018 31.9869C131.499 32.6024 129.828 32.9141 128.012 32.9141C124.452 32.9141 121.581 31.7259 119.387 29.3418C117.183 26.9928 116.08 23.8491 116.08 19.9223ZM121.846 19.899C121.846 22.4739 122.426 24.4529 123.591 25.8436C124.752 27.2304 126.306 27.9199 128.242 27.9199C130.186 27.9199 131.74 27.2421 132.882 25.8787C134.019 24.5152 134.592 22.5557 134.592 19.9963C134.592 17.3513 134.035 15.345 132.909 13.9816C131.783 12.6181 130.276 11.9403 128.367 11.9403C126.411 11.9403 124.833 12.6181 123.634 13.9699C122.449 15.3334 121.846 17.2889 121.846 19.899Z" fill="#FDFDFD"/>
        <path d="M143.271 32.5122V7.38574H150.33C152.847 7.38574 154.779 7.54936 156.142 7.88048C157.899 8.33237 159.204 9.092 160.069 10.1477C160.934 11.2034 161.363 12.6642 161.363 14.5029C161.363 17.5142 159.929 19.723 157.046 21.0981C158.055 21.5734 158.967 22.4967 159.812 23.8874C160.654 25.2742 162.114 28.1491 164.179 32.5161H157.775C156.29 29.2905 155.223 27.0778 154.573 25.8936C153.922 24.7054 153.303 23.8991 152.722 23.4744C152.27 23.1667 151.596 23.0109 150.704 23.0109H149.037V32.5161L143.271 32.5122ZM149.037 18.2739H151.351C152.301 18.2739 153.108 18.1687 153.782 17.9427C154.421 17.7051 154.872 17.3623 155.157 16.8987C155.441 16.4351 155.585 15.843 155.585 15.1068C155.585 14.3588 155.394 13.7433 155.017 13.2564C154.639 12.7811 153.996 12.45 153.096 12.2942C152.372 12.1656 151.472 12.1033 150.393 12.1033H149.037V18.2739Z" fill="#FDFDFD"/>
        <path d="M166.392 32.5122V7.38574H172.157V27.2765H182.882V32.5122H166.392Z" fill="#FDFDFD"/>
        <path d="M186.01 32.5122V7.38574H192.43C196.333 7.38574 199.169 7.74024 200.961 8.46092C203.216 9.37638 204.923 10.7515 206.064 12.5902C207.213 14.4289 207.786 16.7896 207.786 19.6724C207.786 22.5668 207.17 25.0132 205.924 26.9805C204.689 28.9633 202.815 30.4202 200.31 31.3591C198.246 32.1187 195.421 32.5083 191.849 32.5083L186.01 32.5122ZM191.791 27.3466H193.427C195.92 27.3466 197.673 27.0739 198.682 26.5286C200.914 25.3677 202.028 23.1238 202.028 19.8009C202.028 16.739 200.926 14.5809 198.717 13.346C197.767 12.8006 196.107 12.5279 193.758 12.5279H191.787V27.3466H191.791Z" fill="#FDFDFD"/>
        <rect x="0.5" y="0.5" width="250" height="39" stroke="#334155"/>
    </g>
    <rect x="0.5" y="0.5" width="250" height="39" rx="3.5" stroke="#333333"/>
    <defs>
        <clipPath id="clip0_1_2328">
            <rect width="251" height="40" rx="4" fill="white"/>
        </clipPath>
    </defs>
</svg>
